<?xml version="1.0" standalone="no"?>
<!DOCTYPE svg PUBLIC "-//W3C//DTD SVG 20010904//EN"
 "http://www.w3.org/TR/2001/REC-SVG-20010904/DTD/svg10.dtd">
<svg version="1.0" xmlns="http://www.w3.org/2000/svg"
 width="128px" height="128px" viewBox="0 0 300.000000 300.000000"
 preserveAspectRatio="xMidYMid meet">

<g transform="translate(0.000000,300.000000) scale(0.100000,-0.100000)"
fill="#FA773C" stroke="none">
<path d="M1260 2976 c-323 -58 -589 -196 -815 -421 -210 -211 -348 -467 -412
-765 -26 -121 -26 -459 0 -580 123 -578 542 -1019 1103 -1161 410 -103 840
-29 1198 208 136 90 319 273 409 409 237 358 311 788 208 1198 -141 557 -577
974 -1151 1101 -102 23 -436 29 -540 11z m650 -617 c4 -28 10 -34 36 -40 125
-25 251 -153 271 -276 5 -31 8 -33 47 -33 23 0 47 -5 54 -12 19 -19 14 -56 -8
-68 -19 -10 -20 -21 -20 -150 l0 -140 37 0 36 0 -6 -197 c-4 -108 -7 -312 -7
-455 l0 -258 -43 0 -43 0 4 -40 c6 -57 -5 -89 -33 -102 -21 -9 -28 -8 -45 7
-17 15 -20 31 -20 101 l0 82 -31 11 c-62 22 -136 14 -219 -24 -109 -49 -186
-49 -287 0 -99 48 -157 48 -263 0 -109 -49 -181 -49 -290 0 -83 38 -157 46
-219 24 l-31 -11 0 -82 c0 -70 -3 -86 -20 -101 -17 -15 -24 -16 -45 -7 -23 11
-25 17 -25 77 l0 65 -45 0 -45 0 -2 325 c-2 179 -3 382 -3 453 l0 127 69 5 69
5 -42 40 c-45 44 -52 75 -25 114 11 15 24 22 39 19 22 -5 22 -4 6 23 -9 15
-23 30 -33 32 -22 6 -34 52 -22 86 7 19 18 27 43 31 l34 5 -41 43 c-61 63 -53
124 17 134 23 3 22 4 -18 43 -42 41 -50 69 -31 106 10 18 24 19 295 19 271 0
285 -1 295 -19 18 -35 11 -60 -31 -103 l-42 -43 27 -3 c29 -4 56 -36 56 -68 0
-13 -19 -42 -42 -66 l-41 -43 26 -3 c29 -4 57 -35 57 -64 0 -10 -18 -37 -40
-60 l-40 -43 27 -7 c58 -16 70 -74 26 -116 -66 -63 -67 -62 51 -62 l106 0 0
140 c0 129 -1 140 -20 150 -22 12 -27 49 -8 68 7 7 30 12 53 12 l40 0 12 51
c29 120 143 233 260 257 33 7 38 12 41 40 4 43 38 67 67 48 11 -7 22 -28 25
-47z"/>
<path d="M1850 2356 c0 -17 5 -26 16 -26 10 0 14 7 12 22 -5 32 -28 35 -28 4z"/>
<path d="M736 2295 c-3 -8 -3 -22 0 -30 5 -13 42 -15 268 -13 l261 3 3 28 3
27 -264 0 c-226 0 -266 -2 -271 -15z"/>
<path d="M1759 2277 c-94 -35 -166 -105 -199 -194 -11 -30 -20 -58 -20 -63 0
-6 124 -10 325 -10 l325 0 -6 28 c-20 92 -88 178 -176 223 -54 28 -193 37
-249 16z"/>
<path d="M790 2211 c0 -5 11 -16 25 -25 20 -13 54 -16 189 -16 161 0 166 1
193 25 l28 24 -217 1 c-120 0 -218 -4 -218 -9z"/>
<path d="M736 2121 c-4 -5 -3 -16 0 -25 5 -14 38 -16 270 -16 l264 0 0 25 0
25 -264 0 c-148 0 -267 -4 -270 -9z"/>
<path d="M1001 2040 l-213 -5 22 -20 c20 -18 36 -20 196 -20 166 0 174 1 196
22 12 12 20 24 17 25 -2 2 -100 1 -218 -2z"/>
<path d="M1436 1971 c-3 -5 3 -11 14 -14 19 -5 20 -14 20 -161 0 -182 18 -217
22 -43 l3 112 370 0 370 0 3 -112 c4 -174 22 -139 22 43 0 147 1 156 20 161
11 3 17 9 14 14 -7 12 -851 12 -858 0z"/>
<path d="M736 1945 c-3 -8 -3 -22 0 -30 5 -13 45 -15 270 -15 l264 0 0 30 0
30 -264 0 c-225 0 -265 -2 -270 -15z"/>
<path d="M803 1845 c28 -25 31 -25 200 -25 140 0 177 3 195 16 12 8 22 19 22
25 0 5 -90 9 -222 9 l-223 -1 28 -24z"/>
<path d="M1530 1740 l0 -100 335 0 335 0 0 100 0 100 -335 0 -335 0 0 -100z"/>
<path d="M734 1765 c-13 -33 6 -35 272 -35 l264 0 0 25 0 25 -265 0 c-223 0
-267 -2 -271 -15z"/>
<path d="M796 1676 c11 -28 56 -36 214 -36 155 0 160 1 187 25 l28 24 -217 1
c-180 0 -216 -2 -212 -14z"/>
<path d="M680 1510 l0 -100 825 0 826 0 -3 98 -3 97 -822 3 -823 2 0 -100z"/>
<path d="M690 1069 l0 -311 28 7 c15 3 58 21 97 38 98 45 174 44 271 -3 105
-51 160 -52 265 -4 72 32 94 38 154 38 60 0 79 -5 135 -34 57 -30 74 -34 140
-34 66 0 83 4 140 34 56 29 75 34 135 34 60 0 82 -6 151 -37 45 -20 89 -37 98
-37 15 0 16 28 14 308 l-3 307 -812 3 -813 2 0 -311z"/>
<path d="M777 743 c-4 -3 -7 -33 -7 -65 0 -43 3 -59 13 -55 7 2 12 26 13 65 1
58 -3 71 -19 55z"/>
<path d="M2210 685 c0 -37 4 -65 10 -65 6 0 10 28 10 65 0 37 -4 65 -10 65 -6
0 -10 -28 -10 -65z"/>
</g>
</svg>
