<?xml version="1.0" standalone="no"?>
<!DOCTYPE svg PUBLIC "-//W3C//DTD SVG 20010904//EN"
 "http://www.w3.org/TR/2001/REC-SVG-20010904/DTD/svg10.dtd">
<svg version="1.0" xmlns="http://www.w3.org/2000/svg"
 width="12p8x" height="128px" viewBox="0 0 327.000000 327.000000"
 preserveAspectRatio="xMidYMid meet">

<g transform="translate(0.000000,327.000000) scale(0.100000,-0.100000)"
fill=" rgb(218, 22, 54)" stroke="none">
<path d="M1520 3264 c-247 -27 -385 -63 -584 -153 -318 -144 -630 -456 -776
-776 -111 -244 -154 -442 -154 -700 0 -258 43 -456 154 -700 146 -321 454
-629 775 -775 244 -111 442 -154 700 -154 257 0 459 44 697 153 326 149 631
454 778 776 111 244 154 442 154 700 0 164 -13 271 -50 411 -76 287 -209 521
-417 733 -245 249 -555 411 -894 466 -90 15 -320 26 -383 19z m253 -1029 l102
-115 266 0 c193 0 268 -3 277 -12 9 -9 12 -156 12 -600 l0 -588 -26 -10 c-34
-13 -1504 -13 -1538 0 l-26 10 0 588 c0 444 3 591 12 600 9 9 84 12 278 12
l266 0 79 91 c115 131 151 162 175 149 11 -6 66 -62 123 -125z"/>
<path d="M1577 2189 l-57 -64 60 -3 c34 -2 85 -2 116 0 l55 3 -59 64 -58 64
-57 -64z"/>
<path d="M930 1510 l0 -520 705 0 705 0 0 520 0 520 -705 0 -705 0 0 -520z
m1268 378 c17 -17 17 -729 0 -746 -17 -17 -1109 -17 -1126 0 -17 17 -17 729 0
746 17 17 1109 17 1126 0z"/>
<path d="M1150 1672 l0 -138 215 -86 215 -86 94 69 c54 39 104 69 117 69 13 0
93 -22 177 -49 l152 -49 0 204 0 204 -485 0 -485 0 0 -138z m441 67 c58 -41
74 -109 39 -166 -26 -44 -63 -66 -110 -66 -93 0 -157 101 -115 182 35 69 126
93 186 50z"/>
<path d="M1489 1654 c-17 -21 0 -49 31 -49 31 0 48 28 31 49 -8 9 -21 16 -31
16 -10 0 -23 -7 -31 -16z"/>
<path d="M1150 1325 l0 -105 112 0 113 0 52 36 c29 20 53 40 53 43 0 8 -303
131 -320 131 -6 0 -10 -44 -10 -105z"/>
<path d="M1673 1322 c-67 -49 -126 -91 -129 -95 -4 -4 124 -7 284 -7 l292 0 0
44 0 44 -153 51 c-83 28 -157 51 -162 51 -6 0 -65 -40 -132 -88z"/>
</g>
</svg>
